<?xml version="1.0" encoding="UTF-8" standalone="no"?>
<!DOCTYPE svg PUBLIC "-//W3C//DTD SVG 1.1//EN"
 "http://www.w3.org/Graphics/SVG/1.1/DTD/svg11.dtd">
<!-- Generated by graphviz version 2.29.20121209.0545 (20121209.0545)
 -->
<!-- Title: controllers_diagram Pages: 1 -->
<svg width="2702pt" height="1512pt"
 viewBox="0.00 0.00 2702.15 1511.91" xmlns="http://www.w3.org/2000/svg" xmlns:xlink="http://www.w3.org/1999/xlink">
<g id="graph0" class="graph" transform="scale(1 1) rotate(0) translate(4 1507.91)">
<title>controllers_diagram</title>
<polygon fill="white" stroke="white" points="-4,5 -4,-1507.91 2699.15,-1507.91 2699.15,5 -4,5"/>
<!-- _diagram_info -->
<g id="node1" class="node"><title>_diagram_info</title>
<text text-anchor="start" x="1784" y="-63.6" font-family="Times,serif" font-size="13.00">Controllers diagram</text>
<text text-anchor="start" x="1784" y="-49.6" font-family="Times,serif" font-size="13.00">Date: Dec 24 2012 &#45; 21:07</text>
<text text-anchor="start" x="1784" y="-35.6" font-family="Times,serif" font-size="13.00">Migration version: 20121225020158</text>
<text text-anchor="start" x="1784" y="-21.6" font-family="Times,serif" font-size="13.00">Generated by RailRoady 1.1.0</text>
<text text-anchor="start" x="1784" y="-7.6" font-family="Times,serif" font-size="13.00">http://railroady.prestonlee.com</text>
</g>
<!-- AddendumsController -->
<g id="node2" class="node"><title>AddendumsController</title>
<ellipse fill="none" stroke="black" cx="144.689" cy="-278.446" rx="92.0841" ry="18"/>
<text text-anchor="middle" x="144.689" y="-274.746" font-family="Times,serif" font-size="14.00">AddendumsController</text>
</g>
<!-- ApplicationController -->
<g id="node3" class="node"><title>ApplicationController</title>
<ellipse fill="none" stroke="black" cx="1364.94" cy="-920.429" rx="90.9839" ry="18"/>
<text text-anchor="middle" x="1364.94" y="-916.729" font-family="Times,serif" font-size="14.00">ApplicationController</text>
</g>
<!-- ApplicationController&#45;&gt;AddendumsController -->
<g id="edge1" class="edge"><title>ApplicationController&#45;&gt;AddendumsController</title>
<path fill="none" stroke="black" d="M1332.62,-903.423C1160.09,-812.654 349.133,-386.005 176.896,-295.39"/>
</g>
<!-- BusinessesController -->
<g id="node4" class="node"><title>BusinessesController</title>
<ellipse fill="none" stroke="black" cx="1269.82" cy="-186.171" rx="87.9851" ry="18"/>
<text text-anchor="middle" x="1269.82" y="-182.471" font-family="Times,serif" font-size="14.00">BusinessesController</text>
</g>
<!-- ApplicationController&#45;&gt;BusinessesController -->
<g id="edge2" class="edge"><title>ApplicationController&#45;&gt;BusinessesController</title>
<path fill="none" stroke="black" d="M1359.48,-902.252C1349.29,-866.339 1328.76,-783.658 1332.94,-713.138 1338.47,-619.895 1400.19,-603.444 1389.31,-510.673 1388.39,-502.779 1383.94,-502.264 1380.66,-495.022 1332.18,-387.837 1289.79,-252.611 1275.21,-204.325"/>
</g>
<!-- DailyDataController -->
<g id="node5" class="node"><title>DailyDataController</title>
<ellipse fill="none" stroke="black" cx="987.414" cy="-1463.15" rx="85.5853" ry="18"/>
<text text-anchor="middle" x="987.414" y="-1459.45" font-family="Times,serif" font-size="14.00">DailyDataController</text>
</g>
<!-- ApplicationController&#45;&gt;DailyDataController -->
<g id="edge3" class="edge"><title>ApplicationController&#45;&gt;DailyDataController</title>
<path fill="none" stroke="black" d="M1349.61,-938.372C1316.99,-976.843 1238.92,-1070.56 1180.11,-1154.1 1104.95,-1260.86 1025.66,-1396.48 997.811,-1444.93"/>
</g>
<!-- DailyDataDeliveryExceptionsController -->
<g id="node6" class="node"><title>DailyDataDeliveryExceptionsController</title>
<ellipse fill="none" stroke="black" cx="1837.82" cy="-828.607" rx="157.872" ry="18"/>
<text text-anchor="middle" x="1837.82" y="-824.907" font-family="Times,serif" font-size="14.00">DailyDataDeliveryExceptionsController</text>
</g>
<!-- ApplicationController&#45;&gt;DailyDataDeliveryExceptionsController -->
<g id="edge4" class="edge"><title>ApplicationController&#45;&gt;DailyDataDeliveryExceptionsController</title>
<path fill="none" stroke="black" d="M1447.82,-912.973C1509.03,-906.592 1594.15,-895.88 1667.76,-879.955 1709.06,-871.021 1754.86,-856.944 1788.52,-845.786"/>
</g>
<!-- DailyDataEmployeesController -->
<g id="node7" class="node"><title>DailyDataEmployeesController</title>
<ellipse fill="none" stroke="black" cx="908.178" cy="-826.75" rx="126.178" ry="18"/>
<text text-anchor="middle" x="908.178" y="-823.05" font-family="Times,serif" font-size="14.00">DailyDataEmployeesController</text>
</g>
<!-- ApplicationController&#45;&gt;DailyDataEmployeesController -->
<g id="edge5" class="edge"><title>ApplicationController&#45;&gt;DailyDataEmployeesController</title>
<path fill="none" stroke="black" d="M1301.43,-907.403C1217.23,-890.134 1069,-859.734 980.561,-841.595"/>
</g>
<!-- DailyDataVehiclesController -->
<g id="node8" class="node"><title>DailyDataVehiclesController</title>
<ellipse fill="none" stroke="black" cx="668.277" cy="-212.425" rx="117.779" ry="18"/>
<text text-anchor="middle" x="668.277" y="-208.725" font-family="Times,serif" font-size="14.00">DailyDataVehiclesController</text>
</g>
<!-- ApplicationController&#45;&gt;DailyDataVehiclesController -->
<g id="edge6" class="edge"><title>ApplicationController&#45;&gt;DailyDataVehiclesController</title>
<path fill="none" stroke="black" d="M1361.24,-902.37C1353.42,-867.431 1332.68,-789.249 1293.89,-734.961 1202.26,-606.72 796.433,-306.034 692.559,-230.09"/>
</g>
<!-- DeliveryExceptionsController -->
<g id="node9" class="node"><title>DeliveryExceptionsController</title>
<ellipse fill="none" stroke="black" cx="2105.35" cy="-629.08" rx="120.479" ry="18"/>
<text text-anchor="middle" x="2105.35" y="-625.38" font-family="Times,serif" font-size="14.00">DeliveryExceptionsController</text>
</g>
<!-- ApplicationController&#45;&gt;DeliveryExceptionsController -->
<g id="edge7" class="edge"><title>ApplicationController&#45;&gt;DeliveryExceptionsController</title>
<path fill="none" stroke="black" d="M1404.06,-904.009C1437.61,-889.99 1487.29,-869.391 1530.83,-851.966 1727.74,-773.147 1964.22,-682.736 2060.89,-645.957"/>
</g>
<!-- EmployeeManagerAssignmentsController -->
<g id="node10" class="node"><title>EmployeeManagerAssignmentsController</title>
<ellipse fill="none" stroke="black" cx="1223.28" cy="-510.628" rx="164.371" ry="18"/>
<text text-anchor="middle" x="1223.28" y="-506.928" font-family="Times,serif" font-size="14.00">EmployeeManagerAssignmentsController</text>
</g>
<!-- ApplicationController&#45;&gt;EmployeeManagerAssignmentsController -->
<g id="edge8" class="edge"><title>ApplicationController&#45;&gt;EmployeeManagerAssignmentsController</title>
<path fill="none" stroke="black" d="M1358.67,-902.292C1335.27,-834.6 1253.18,-597.137 1229.64,-529.021"/>
</g>
<!-- EmployeePaysController -->
<g id="node11" class="node"><title>EmployeePaysController</title>
<ellipse fill="none" stroke="black" cx="1760.17" cy="-223.483" rx="102.082" ry="18"/>
<text text-anchor="middle" x="1760.17" y="-219.783" font-family="Times,serif" font-size="14.00">EmployeePaysController</text>
</g>
<!-- ApplicationController&#45;&gt;EmployeePaysController -->
<g id="edge9" class="edge"><title>ApplicationController&#45;&gt;EmployeePaysController</title>
<path fill="none" stroke="black" d="M1383.78,-902.546C1418.92,-868.428 1495.31,-790.556 1544.12,-713.458 1652.28,-542.616 1732.6,-308.391 1754.32,-241.804"/>
</g>
<!-- EmployeePsasController -->
<g id="node12" class="node"><title>EmployeePsasController</title>
<ellipse fill="none" stroke="black" cx="1483.65" cy="-495.088" rx="101.282" ry="18"/>
<text text-anchor="middle" x="1483.65" y="-491.388" font-family="Times,serif" font-size="14.00">EmployeePsasController</text>
</g>
<!-- ApplicationController&#45;&gt;EmployeePsasController -->
<g id="edge10" class="edge"><title>ApplicationController&#45;&gt;EmployeePsasController</title>
<path fill="none" stroke="black" d="M1357.54,-902.238C1343.79,-865.961 1317.09,-782.166 1332.94,-713.138 1352.73,-627.027 1427.61,-547.429 1463.81,-513.013"/>
</g>
<!-- EmployeeTerminalsController -->
<g id="node13" class="node"><title>EmployeeTerminalsController</title>
<ellipse fill="none" stroke="black" cx="122.189" cy="-827.873" rx="122.379" ry="18"/>
<text text-anchor="middle" x="122.189" y="-824.173" font-family="Times,serif" font-size="14.00">EmployeeTerminalsController</text>
</g>
<!-- ApplicationController&#45;&gt;EmployeeTerminalsController -->
<g id="edge11" class="edge"><title>ApplicationController&#45;&gt;EmployeeTerminalsController</title>
<path fill="none" stroke="black" d="M1279.52,-914.067C1059.76,-897.7 474.987,-854.149 231.239,-835.995"/>
</g>
<!-- EmployeesController -->
<g id="node14" class="node"><title>EmployeesController</title>
<ellipse fill="none" stroke="black" cx="2605.76" cy="-828.856" rx="88.2844" ry="18"/>
<text text-anchor="middle" x="2605.76" y="-825.156" font-family="Times,serif" font-size="14.00">EmployeesController</text>
</g>
<!-- ApplicationController&#45;&gt;EmployeesController -->
<g id="edge12" class="edge"><title>ApplicationController&#45;&gt;EmployeesController</title>
<path fill="none" stroke="black" d="M1450.23,-914.135C1677.73,-897.345 2296.98,-851.644 2522.33,-835.013"/>
</g>
<!-- FedexContractsController -->
<g id="node15" class="node"><title>FedexContractsController</title>
<ellipse fill="none" stroke="black" cx="2123.88" cy="-1020.08" rx="105.082" ry="18"/>
<text text-anchor="middle" x="2123.88" y="-1016.38" font-family="Times,serif" font-size="14.00">FedexContractsController</text>
</g>
<!-- ApplicationController&#45;&gt;FedexContractsController -->
<g id="edge13" class="edge"><title>ApplicationController&#45;&gt;FedexContractsController</title>
<path fill="none" stroke="black" d="M1440.83,-930.395C1583.68,-949.152 1891.45,-989.565 2040.12,-1009.09"/>
</g>
<!-- FlatPaysController -->
<g id="node16" class="node"><title>FlatPaysController</title>
<ellipse fill="none" stroke="black" cx="1470.96" cy="-1459.86" rx="79.0865" ry="18"/>
<text text-anchor="middle" x="1470.96" y="-1456.16" font-family="Times,serif" font-size="14.00">FlatPaysController</text>
</g>
<!-- ApplicationController&#45;&gt;FlatPaysController -->
<g id="edge14" class="edge"><title>ApplicationController&#45;&gt;FlatPaysController</title>
<path fill="none" stroke="black" d="M1368.53,-938.686C1384.75,-1021.23 1451.15,-1359.07 1467.37,-1441.61"/>
</g>
<!-- FrequenciesController -->
<g id="node17" class="node"><title>FrequenciesController</title>
<ellipse fill="none" stroke="black" cx="1740.6" cy="-577.531" rx="92.0841" ry="18"/>
<text text-anchor="middle" x="1740.6" y="-573.831" font-family="Times,serif" font-size="14.00">FrequenciesController</text>
</g>
<!-- ApplicationController&#45;&gt;FrequenciesController -->
<g id="edge15" class="edge"><title>ApplicationController&#45;&gt;FrequenciesController</title>
<path fill="none" stroke="black" d="M1384.35,-902.715C1448.95,-843.745 1656.32,-654.461 1721.09,-595.344"/>
</g>
<!-- HomeController -->
<g id="node18" class="node"><title>HomeController</title>
<ellipse fill="none" stroke="black" cx="2076.54" cy="-211.067" rx="70.3881" ry="18"/>
<text text-anchor="middle" x="2076.54" y="-207.367" font-family="Times,serif" font-size="14.00">HomeController</text>
</g>
<!-- ApplicationController&#45;&gt;HomeController -->
<g id="edge16" class="edge"><title>ApplicationController&#45;&gt;HomeController</title>
<path fill="none" stroke="black" d="M1381.18,-902.506C1413.14,-867.046 1486.15,-785.157 1544.12,-713.458 1591.72,-654.581 1594.79,-632.568 1646.71,-577.459 1787.58,-427.937 1985.75,-277.763 2053.09,-228.141"/>
</g>
<!-- NotesController -->
<g id="node19" class="node"><title>NotesController</title>
<ellipse fill="none" stroke="black" cx="655.926" cy="-1446.38" rx="69.5877" ry="18"/>
<text text-anchor="middle" x="655.926" y="-1442.68" font-family="Times,serif" font-size="14.00">NotesController</text>
</g>
<!-- ApplicationController&#45;&gt;NotesController -->
<g id="edge17" class="edge"><title>ApplicationController&#45;&gt;NotesController</title>
<path fill="none" stroke="black" d="M1341.35,-937.928C1233.22,-1018.14 785.689,-1350.12 678.887,-1429.34"/>
</g>
<!-- PayProfilesController -->
<g id="node20" class="node"><title>PayProfilesController</title>
<ellipse fill="none" stroke="black" cx="140.992" cy="-1378.76" rx="89.8845" ry="18"/>
<text text-anchor="middle" x="140.992" y="-1375.06" font-family="Times,serif" font-size="14.00">PayProfilesController</text>
</g>
<!-- ApplicationController&#45;&gt;PayProfilesController -->
<g id="edge18" class="edge"><title>ApplicationController&#45;&gt;PayProfilesController</title>
<path fill="none" stroke="black" d="M1322.11,-936.383C1237.08,-968.06 1040.96,-1041.16 876.193,-1102.82 612.526,-1201.5 295.855,-1320.53 183.251,-1362.87"/>
</g>
<!-- PaysController -->
<g id="node21" class="node"><title>PaysController</title>
<ellipse fill="none" stroke="black" cx="610.875" cy="-1019.61" rx="64.9885" ry="18"/>
<text text-anchor="middle" x="610.875" y="-1015.91" font-family="Times,serif" font-size="14.00">PaysController</text>
</g>
<!-- ApplicationController&#45;&gt;PaysController -->
<g id="edge19" class="edge"><title>ApplicationController&#45;&gt;PaysController</title>
<path fill="none" stroke="black" d="M1296.32,-932.323C1263.41,-937.855 1223.4,-944.329 1187.37,-949.464 999.716,-976.21 776.771,-1001.5 671.572,-1013.05"/>
</g>
<!-- ProductionPaysController -->
<g id="node22" class="node"><title>ProductionPaysController</title>
<ellipse fill="none" stroke="black" cx="1187" cy="-734.799" rx="105.082" ry="18"/>
<text text-anchor="middle" x="1187" y="-731.099" font-family="Times,serif" font-size="14.00">ProductionPaysController</text>
</g>
<!-- ApplicationController&#45;&gt;ProductionPaysController -->
<g id="edge20" class="edge"><title>ApplicationController&#45;&gt;ProductionPaysController</title>
<path fill="none" stroke="black" d="M1347.88,-902.63C1313.95,-867.239 1238.37,-788.386 1204.27,-752.817"/>
</g>
<!-- PsaStatesController -->
<g id="node23" class="node"><title>PsaStatesController</title>
<ellipse fill="none" stroke="black" cx="611.204" cy="-636.131" rx="82.5854" ry="18"/>
<text text-anchor="middle" x="611.204" y="-632.431" font-family="Times,serif" font-size="14.00">PsaStatesController</text>
</g>
<!-- ApplicationController&#45;&gt;PsaStatesController -->
<g id="edge21" class="edge"><title>ApplicationController&#45;&gt;PsaStatesController</title>
<path fill="none" stroke="black" d="M1322.53,-904.432C1189.85,-854.388 783.727,-701.205 652.539,-651.722"/>
</g>
<!-- PsasController -->
<g id="node24" class="node"><title>PsasController</title>
<ellipse fill="none" stroke="black" cx="1724.04" cy="-1467.41" rx="64.189" ry="18"/>
<text text-anchor="middle" x="1724.04" y="-1463.71" font-family="Times,serif" font-size="14.00">PsasController</text>
</g>
<!-- ApplicationController&#45;&gt;PsasController -->
<g id="edge22" class="edge"><title>ApplicationController&#45;&gt;PsasController</title>
<path fill="none" stroke="black" d="M1369.8,-938.58C1380.12,-975.451 1406.39,-1061.08 1443.91,-1125.56 1523.98,-1263.17 1658.29,-1402.29 1706.3,-1450.07"/>
</g>
<!-- PsazipsController -->
<g id="node25" class="node"><title>PsazipsController</title>
<ellipse fill="none" stroke="black" cx="2064.66" cy="-1447.25" rx="75.2868" ry="18"/>
<text text-anchor="middle" x="2064.66" y="-1443.55" font-family="Times,serif" font-size="14.00">PsazipsController</text>
</g>
<!-- ApplicationController&#45;&gt;PsazipsController -->
<g id="edge23" class="edge"><title>ApplicationController&#45;&gt;PsazipsController</title>
<path fill="none" stroke="black" d="M1388.22,-937.957C1494.81,-1018.21 1935.61,-1350.09 2041.64,-1429.92"/>
</g>
<!-- RegionsController -->
<g id="node26" class="node"><title>RegionsController</title>
<ellipse fill="none" stroke="black" cx="1240.14" cy="-1485.91" rx="77.9862" ry="18"/>
<text text-anchor="middle" x="1240.14" y="-1482.21" font-family="Times,serif" font-size="14.00">RegionsController</text>
</g>
<!-- ApplicationController&#45;&gt;RegionsController -->
<g id="edge24" class="edge"><title>ApplicationController&#45;&gt;RegionsController</title>
<path fill="none" stroke="black" d="M1360.93,-938.603C1342.13,-1023.77 1262.9,-1382.79 1244.13,-1467.81"/>
</g>
<!-- RolesController -->
<g id="node27" class="node"><title>RolesController</title>
<ellipse fill="none" stroke="black" cx="1516.36" cy="-166" rx="68.7879" ry="18"/>
<text text-anchor="middle" x="1516.36" y="-162.3" font-family="Times,serif" font-size="14.00">RolesController</text>
</g>
<!-- ApplicationController&#45;&gt;RolesController -->
<g id="edge25" class="edge"><title>ApplicationController&#45;&gt;RolesController</title>
<path fill="none" stroke="black" d="M1359.48,-902.252C1349.29,-866.339 1328.76,-783.658 1332.94,-713.138 1338.47,-619.895 1400.19,-603.444 1389.31,-510.673 1388.39,-502.779 1381.11,-502.957 1380.66,-495.022 1373.4,-367.633 1466.15,-231.674 1502.29,-183.859"/>
</g>
<!-- ServiceTypesController -->
<g id="node28" class="node"><title>ServiceTypesController</title>
<ellipse fill="none" stroke="black" cx="2587.69" cy="-1379.77" rx="97.4827" ry="18"/>
<text text-anchor="middle" x="2587.69" y="-1376.07" font-family="Times,serif" font-size="14.00">ServiceTypesController</text>
</g>
<!-- ApplicationController&#45;&gt;ServiceTypesController -->
<g id="edge26" class="edge"><title>ApplicationController&#45;&gt;ServiceTypesController</title>
<path fill="none" stroke="black" d="M1408.87,-936.29C1493.2,-966.792 1683.59,-1035.89 1843.24,-1095.6 2111.14,-1195.78 2431.88,-1319.49 2545.37,-1363.39"/>
</g>
<!-- StatesController -->
<g id="node29" class="node"><title>StatesController</title>
<ellipse fill="none" stroke="black" cx="1137.34" cy="-935.53" rx="69.5877" ry="18"/>
<text text-anchor="middle" x="1137.34" y="-931.83" font-family="Times,serif" font-size="14.00">StatesController</text>
</g>
<!-- ApplicationController&#45;&gt;StatesController -->
<g id="edge27" class="edge"><title>ApplicationController&#45;&gt;StatesController</title>
<path fill="none" stroke="black" d="M1278.57,-926.159C1254.17,-927.778 1227.99,-929.515 1204.87,-931.049"/>
</g>
<!-- TerminalsController -->
<g id="node30" class="node"><title>TerminalsController</title>
<ellipse fill="none" stroke="black" cx="949.661" cy="-551.522" rx="85.2851" ry="18"/>
<text text-anchor="middle" x="949.661" y="-547.822" font-family="Times,serif" font-size="14.00">TerminalsController</text>
</g>
<!-- ApplicationController&#45;&gt;TerminalsController -->
<g id="edge28" class="edge"><title>ApplicationController&#45;&gt;TerminalsController</title>
<path fill="none" stroke="black" d="M1330.92,-903.642C1274.41,-874.642 1159.55,-810.882 1080.11,-734.637 1025.62,-682.336 978.976,-604.481 959.447,-569.584"/>
</g>
<!-- UserRolesController -->
<g id="node31" class="node"><title>UserRolesController</title>
<ellipse fill="none" stroke="black" cx="2590.32" cy="-281.485" rx="85.5853" ry="18"/>
<text text-anchor="middle" x="2590.32" y="-277.785" font-family="Times,serif" font-size="14.00">UserRolesController</text>
</g>
<!-- ApplicationController&#45;&gt;UserRolesController -->
<g id="edge29" class="edge"><title>ApplicationController&#45;&gt;UserRolesController</title>
<path fill="none" stroke="black" d="M1397.4,-903.503C1570.75,-813.115 2385.91,-388.071 2558.26,-298.202"/>
</g>
<!-- UsersController -->
<g id="node32" class="node"><title>UsersController</title>
<ellipse fill="none" stroke="black" cx="1514.4" cy="-1125.67" rx="68.7879" ry="18"/>
<text text-anchor="middle" x="1514.4" y="-1121.97" font-family="Times,serif" font-size="14.00">UsersController</text>
</g>
<!-- ApplicationController&#45;&gt;UsersController -->
<g id="edge30" class="edge"><title>ApplicationController&#45;&gt;UsersController</title>
<path fill="none" stroke="black" d="M1377.94,-938.284C1406.21,-977.1 1472.99,-1068.8 1501.33,-1107.71"/>
</g>
<!-- VehicleFuelsController -->
<g id="node33" class="node"><title>VehicleFuelsController</title>
<ellipse fill="none" stroke="black" cx="1599.29" cy="-865.96" rx="96.3833" ry="18"/>
<text text-anchor="middle" x="1599.29" y="-862.26" font-family="Times,serif" font-size="14.00">VehicleFuelsController</text>
</g>
<!-- ApplicationController&#45;&gt;VehicleFuelsController -->
<g id="edge31" class="edge"><title>ApplicationController&#45;&gt;VehicleFuelsController</title>
<path fill="none" stroke="black" d="M1424.08,-906.684C1459.2,-898.522 1503.62,-888.197 1538.95,-879.985"/>
</g>
<!-- VehicleOdometersController -->
<g id="node34" class="node"><title>VehicleOdometersController</title>
<ellipse fill="none" stroke="black" cx="1008.02" cy="-194.159" rx="116.18" ry="18"/>
<text text-anchor="middle" x="1008.02" y="-190.459" font-family="Times,serif" font-size="14.00">VehicleOdometersController</text>
</g>
<!-- ApplicationController&#45;&gt;VehicleOdometersController -->
<g id="edge32" class="edge"><title>ApplicationController&#45;&gt;VehicleOdometersController</title>
<path fill="none" stroke="black" d="M1360.86,-902.315C1352.47,-867.613 1330.85,-790.299 1293.89,-734.961 1213.38,-614.441 1124.58,-638.928 1057.24,-510.583 1003.39,-407.935 1004.61,-262.596 1006.91,-212.196"/>
</g>
<!-- VehicleTypesController -->
<g id="node35" class="node"><title>VehicleTypesController</title>
<ellipse fill="none" stroke="black" cx="946.468" cy="-1116.82" rx="98.5829" ry="18"/>
<text text-anchor="middle" x="946.468" y="-1113.12" font-family="Times,serif" font-size="14.00">VehicleTypesController</text>
</g>
<!-- ApplicationController&#45;&gt;VehicleTypesController -->
<g id="edge33" class="edge"><title>ApplicationController&#45;&gt;VehicleTypesController</title>
<path fill="none" stroke="black" d="M1329.26,-937.173C1250.3,-974.231 1061.51,-1062.83 982.353,-1099.98"/>
</g>
<!-- VehiclesController -->
<g id="node36" class="node"><title>VehiclesController</title>
<ellipse fill="none" stroke="black" cx="1785.21" cy="-1109.37" rx="79.8859" ry="18"/>
<text text-anchor="middle" x="1785.21" y="-1105.67" font-family="Times,serif" font-size="14.00">VehiclesController</text>
</g>
<!-- ApplicationController&#45;&gt;VehiclesController -->
<g id="edge34" class="edge"><title>ApplicationController&#45;&gt;VehiclesController</title>
<path fill="none" stroke="black" d="M1401.87,-937.03C1481.79,-972.959 1669.95,-1057.55 1749.11,-1093.14"/>
</g>
<!-- WeeklyReviewController -->
<g id="node37" class="node"><title>WeeklyReviewController</title>
<ellipse fill="none" stroke="black" cx="1438.53" cy="-713.298" rx="103.982" ry="18"/>
<text text-anchor="middle" x="1438.53" y="-709.598" font-family="Times,serif" font-size="14.00">WeeklyReviewController</text>
</g>
<!-- ApplicationController&#45;&gt;WeeklyReviewController -->
<g id="edge35" class="edge"><title>ApplicationController&#45;&gt;WeeklyReviewController</title>
<path fill="none" stroke="black" d="M1371.34,-902.41C1385.26,-863.237 1418.14,-770.692 1432.09,-731.423"/>
</g>
<!-- ZipsController -->
<g id="node38" class="node"><title>ZipsController</title>
<ellipse fill="none" stroke="black" cx="1246.06" cy="-1154.22" rx="64.189" ry="18"/>
<text text-anchor="middle" x="1246.06" y="-1150.52" font-family="Times,serif" font-size="14.00">ZipsController</text>
</g>
<!-- ApplicationController&#45;&gt;ZipsController -->
<g id="edge36" class="edge"><title>ApplicationController&#45;&gt;ZipsController</title>
<path fill="none" stroke="black" d="M1355.81,-938.386C1333.68,-981.905 1277.38,-1092.62 1255.22,-1136.21"/>
</g>
</g>
</svg>
